<svg width="312" height="35" viewBox="0 0 312 35" fill="none" xmlns="http://www.w3.org/2000/svg">
<path d="M10.3 34V4.7H0.4V1.2H24.4V4.7H14.5V34H10.3ZM30.3066 34V1.2H34.4566V14.95H49.7066V1.2H53.9066V34H49.7066V18.55H34.4566V34H30.3066ZM62.9238 34V1.2H81.8238V4.7H67.0738V15H79.5238V18.55H67.0738V30.45H82.3238V34H62.9238ZM89.291 34V1.2H94.291L100.591 18.7C100.991 19.8333 101.374 20.9833 101.741 22.15C102.141 23.2833 102.541 24.4167 102.941 25.55H103.141C103.541 24.4167 103.908 23.2833 104.241 22.15C104.608 20.9833 104.991 19.8333 105.391 18.7L111.591 1.2H116.641V34H112.741V15.95C112.741 14.4833 112.808 12.8667 112.941 11.1C113.074 9.33333 113.191 7.71667 113.291 6.25H113.091L110.491 13.7L104.291 30.7H101.541L95.341 13.7L92.741 6.25H92.541C92.641 7.71667 92.741 9.33333 92.841 11.1C92.9743 12.8667 93.041 14.4833 93.041 15.95V34H89.291ZM137.719 34.6C135.652 34.6 133.752 34.2 132.019 33.4C130.319 32.6 128.852 31.4667 127.619 30C126.386 28.5 125.419 26.7 124.719 24.6C124.052 22.4667 123.719 20.0833 123.719 17.45C123.719 14.8167 124.052 12.4667 124.719 10.4C125.419 8.3 126.386 6.53333 127.619 5.1C128.852 3.63333 130.319 2.51666 132.019 1.75C133.752 0.983331 135.652 0.599998 137.719 0.599998C139.786 0.599998 141.669 0.999998 143.369 1.8C145.102 2.56666 146.586 3.68333 147.819 5.15C149.086 6.58333 150.052 8.35 150.719 10.45C151.419 12.5167 151.769 14.85 151.769 17.45C151.769 20.0833 151.419 22.4667 150.719 24.6C150.052 26.7 149.086 28.5 147.819 30C146.586 31.4667 145.102 32.6 143.369 33.4C141.669 34.2 139.786 34.6 137.719 34.6ZM137.719 30.95C139.186 30.95 140.502 30.6333 141.669 30C142.869 29.3667 143.886 28.4667 144.719 27.3C145.586 26.1 146.252 24.6833 146.719 23.05C147.186 21.3833 147.419 19.5167 147.419 17.45C147.419 15.4167 147.186 13.5833 146.719 11.95C146.252 10.3167 145.586 8.93333 144.719 7.8C143.886 6.66666 142.869 5.8 141.669 5.2C140.502 4.56667 139.186 4.25 137.719 4.25C136.252 4.25 134.919 4.56667 133.719 5.2C132.552 5.8 131.536 6.66666 130.669 7.8C129.836 8.93333 129.186 10.3167 128.719 11.95C128.252 13.5833 128.019 15.4167 128.019 17.45C128.019 19.5167 128.252 21.3833 128.719 23.05C129.186 24.6833 129.836 26.1 130.669 27.3C131.536 28.4667 132.552 29.3667 133.719 30C134.919 30.6333 136.252 30.95 137.719 30.95ZM164.334 34L153.834 1.2H158.284L163.534 18.9C164.134 20.8667 164.651 22.6833 165.084 24.35C165.551 26.0167 166.101 27.8167 166.734 29.75H166.934C167.534 27.8167 168.067 26.0167 168.534 24.35C169.001 22.6833 169.517 20.8667 170.084 18.9L175.334 1.2H179.584L169.184 34H164.334ZM184.066 34V1.2H188.216V34H184.066ZM197.201 34V1.2H216.101V4.7H201.351V15H213.801V18.55H201.351V30.45H216.601V34H197.201ZM222.668 34V1.5H234.368C236.068 1.5 237.668 1.63333 239.168 1.9C240.668 2.13333 241.968 2.55 243.068 3.15C244.168 3.75 245.035 4.58333 245.668 5.65C246.335 6.68333 246.668 8 246.668 9.6C246.668 10.3 246.568 11.0167 246.368 11.75C246.168 12.45 245.885 13.1333 245.518 13.8C245.185 14.4333 244.768 15 244.268 15.5C243.768 16 243.202 16.3667 242.568 16.6V16.8C244.135 17.2667 245.452 18.1167 246.518 19.35C247.618 20.55 248.168 22.2333 248.168 24.4C248.168 26.0667 247.818 27.5167 247.118 28.75C246.452 29.95 245.535 30.95 244.368 31.75C243.235 32.5167 241.885 33.0833 240.318 33.45C238.752 33.8167 237.102 34 235.368 34H222.668ZM231.268 14.2H234.168C235.568 14.2 236.602 13.9 237.268 13.3C237.935 12.7 238.268 11.9 238.268 10.9C238.268 9.9 237.935 9.18333 237.268 8.75C236.602 8.31667 235.568 8.1 234.168 8.1H231.268V14.2ZM231.268 27.4H234.768C238.102 27.4 239.768 26.2 239.768 23.8C239.768 22.6 239.352 21.75 238.518 21.25C237.718 20.75 236.468 20.5 234.768 20.5H231.268V27.4ZM266.984 34.6C264.717 34.6 262.65 34.2167 260.784 33.45C258.95 32.6833 257.367 31.5833 256.034 30.15C254.734 28.6833 253.717 26.9 252.984 24.8C252.25 22.6667 251.884 20.2667 251.884 17.6C251.884 14.9333 252.25 12.5667 252.984 10.5C253.717 8.4 254.734 6.65 256.034 5.25C257.367 3.81666 258.95 2.73333 260.784 2C262.65 1.26666 264.717 0.899997 266.984 0.899997C269.217 0.899997 271.267 1.26666 273.134 2C275 2.73333 276.584 3.81666 277.884 5.25C279.217 6.68333 280.25 8.43333 280.984 10.5C281.717 12.5667 282.084 14.9333 282.084 17.6C282.084 20.2667 281.717 22.6667 280.984 24.8C280.25 26.9 279.217 28.6833 277.884 30.15C276.584 31.5833 275 32.6833 273.134 33.45C271.267 34.2167 269.217 34.6 266.984 34.6ZM266.984 27.2C268.95 27.2 270.484 26.35 271.584 24.65C272.717 22.9167 273.284 20.5667 273.284 17.6C273.284 14.6333 272.717 12.35 271.584 10.75C270.484 9.11667 268.95 8.3 266.984 8.3C265.017 8.3 263.467 9.11667 262.334 10.75C261.234 12.35 260.684 14.6333 260.684 17.6C260.684 20.5667 261.234 22.9167 262.334 24.65C263.467 26.35 265.017 27.2 266.984 27.2ZM283.289 34L292.089 17.3L283.789 1.5H293.389L295.589 6.8C295.956 7.56667 296.306 8.4 296.639 9.3C297.006 10.1667 297.422 11.1333 297.889 12.2H298.089C298.456 11.1333 298.806 10.1667 299.139 9.3C299.472 8.4 299.789 7.56667 300.089 6.8L301.989 1.5H311.189L302.889 17.7L311.689 34H302.089L299.489 28.2C299.089 27.3333 298.706 26.4667 298.339 25.6C297.972 24.7333 297.589 23.8 297.189 22.8H296.989C296.622 23.8 296.272 24.7333 295.939 25.6C295.606 26.4667 295.256 27.3333 294.889 28.2L292.489 34H283.289Z" fill="#494C62"/>
</svg>
