<svg width="375" height="42" viewBox="0 0 375 42" fill="none" xmlns="http://www.w3.org/2000/svg">
<path d="M12.56 41V5.84H0.68V1.64H29.48V5.84H17.6V41H12.56ZM36.568 41V1.64H41.548V18.14H59.848V1.64H64.888V41H59.848V22.46H41.548V41H36.568ZM75.7086 41V1.64H98.3886V5.84H80.6886V18.2H95.6286V22.46H80.6886V36.74H98.9886V41H75.7086ZM107.349 41V1.64H113.349L120.909 22.64C121.389 24 121.849 25.38 122.289 26.78C122.769 28.14 123.249 29.5 123.729 30.86H123.969C124.449 29.5 124.889 28.14 125.289 26.78C125.729 25.38 126.189 24 126.669 22.64L134.109 1.64H140.169V41H135.489V19.34C135.489 17.58 135.569 15.64 135.729 13.52C135.889 11.4 136.029 9.46 136.149 7.7H135.909L132.789 16.64L125.349 37.04H122.049L114.609 16.64L111.489 7.7H111.249C111.369 9.46 111.489 11.4 111.609 13.52C111.769 15.64 111.849 17.58 111.849 19.34V41H107.349ZM165.463 41.72C162.983 41.72 160.703 41.24 158.623 40.28C156.583 39.32 154.823 37.96 153.343 36.2C151.863 34.4 150.703 32.24 149.863 29.72C149.063 27.16 148.663 24.3 148.663 21.14C148.663 17.98 149.063 15.16 149.863 12.68C150.703 10.16 151.863 8.04 153.343 6.32C154.823 4.56 156.583 3.22 158.623 2.3C160.703 1.38 162.983 0.919997 165.463 0.919997C167.943 0.919997 170.203 1.4 172.243 2.36C174.323 3.28 176.103 4.62 177.583 6.38C179.103 8.1 180.263 10.22 181.063 12.74C181.903 15.22 182.323 18.02 182.323 21.14C182.323 24.3 181.903 27.16 181.063 29.72C180.263 32.24 179.103 34.4 177.583 36.2C176.103 37.96 174.323 39.32 172.243 40.28C170.203 41.24 167.943 41.72 165.463 41.72ZM165.463 37.34C167.223 37.34 168.803 36.96 170.203 36.2C171.643 35.44 172.863 34.36 173.863 32.96C174.903 31.52 175.703 29.82 176.263 27.86C176.823 25.86 177.103 23.62 177.103 21.14C177.103 18.7 176.823 16.5 176.263 14.54C175.703 12.58 174.903 10.92 173.863 9.56C172.863 8.2 171.643 7.16 170.203 6.44C168.803 5.68 167.223 5.3 165.463 5.3C163.703 5.3 162.103 5.68 160.663 6.44C159.263 7.16 158.043 8.2 157.003 9.56C156.003 10.92 155.223 12.58 154.663 14.54C154.103 16.5 153.823 18.7 153.823 21.14C153.823 23.62 154.103 25.86 154.663 27.86C155.223 29.82 156.003 31.52 157.003 32.96C158.043 34.36 159.263 35.44 160.663 36.2C162.103 36.96 163.703 37.34 165.463 37.34ZM197.401 41L184.801 1.64H190.141L196.441 22.88C197.161 25.24 197.781 27.42 198.301 29.42C198.861 31.42 199.521 33.58 200.281 35.9H200.521C201.241 33.58 201.881 31.42 202.441 29.42C203.001 27.42 203.621 25.24 204.301 22.88L210.601 1.64H215.701L203.221 41H197.401ZM221.08 41V1.64H226.06V41H221.08ZM236.841 41V1.64H259.521V5.84H241.821V18.2H256.761V22.46H241.821V36.74H260.121V41H236.841ZM267.402 41V2H281.442C283.482 2 285.402 2.16 287.202 2.48C289.002 2.76 290.562 3.26 291.882 3.98C293.202 4.7 294.242 5.7 295.002 6.98C295.802 8.22 296.202 9.8 296.202 11.72C296.202 12.56 296.082 13.42 295.842 14.3C295.602 15.14 295.262 15.96 294.822 16.76C294.422 17.52 293.922 18.2 293.322 18.8C292.722 19.4 292.042 19.84 291.282 20.12V20.36C293.162 20.92 294.742 21.94 296.022 23.42C297.342 24.86 298.002 26.88 298.002 29.48C298.002 31.48 297.582 33.22 296.742 34.7C295.942 36.14 294.842 37.34 293.442 38.3C292.082 39.22 290.462 39.9 288.582 40.34C286.702 40.78 284.722 41 282.642 41H267.402ZM277.722 17.24H281.202C282.882 17.24 284.122 16.88 284.922 16.16C285.722 15.44 286.122 14.48 286.122 13.28C286.122 12.08 285.722 11.22 284.922 10.7C284.122 10.18 282.882 9.92 281.202 9.92H277.722V17.24ZM277.722 33.08H281.922C285.922 33.08 287.922 31.64 287.922 28.76C287.922 27.32 287.422 26.3 286.422 25.7C285.462 25.1 283.962 24.8 281.922 24.8H277.722V33.08ZM320.58 41.72C317.86 41.72 315.38 41.26 313.14 40.34C310.94 39.42 309.04 38.1 307.44 36.38C305.88 34.62 304.66 32.48 303.78 29.96C302.9 27.4 302.46 24.52 302.46 21.32C302.46 18.12 302.9 15.28 303.78 12.8C304.66 10.28 305.88 8.18 307.44 6.5C309.04 4.78 310.94 3.48 313.14 2.6C315.38 1.72 317.86 1.28 320.58 1.28C323.26 1.28 325.72 1.72 327.96 2.6C330.2 3.48 332.1 4.78 333.66 6.5C335.26 8.22 336.5 10.32 337.38 12.8C338.26 15.28 338.7 18.12 338.7 21.32C338.7 24.52 338.26 27.4 337.38 29.96C336.5 32.48 335.26 34.62 333.66 36.38C332.1 38.1 330.2 39.42 327.96 40.34C325.72 41.26 323.26 41.72 320.58 41.72ZM320.58 32.84C322.94 32.84 324.78 31.82 326.1 29.78C327.46 27.7 328.14 24.88 328.14 21.32C328.14 17.76 327.46 15.02 326.1 13.1C324.78 11.14 322.94 10.16 320.58 10.16C318.22 10.16 316.36 11.14 315 13.1C313.68 15.02 313.02 17.76 313.02 21.32C313.02 24.88 313.68 27.7 315 29.78C316.36 31.82 318.22 32.84 320.58 32.84ZM340.147 41L350.707 20.96L340.747 2H352.267L354.907 8.36C355.347 9.28 355.767 10.28 356.167 11.36C356.607 12.4 357.107 13.56 357.667 14.84H357.907C358.347 13.56 358.767 12.4 359.167 11.36C359.567 10.28 359.947 9.28 360.307 8.36L362.587 2H373.627L363.667 21.44L374.227 41H362.707L359.587 34.04C359.107 33 358.647 31.96 358.207 30.92C357.767 29.88 357.307 28.76 356.827 27.56H356.587C356.147 28.76 355.727 29.88 355.327 30.92C354.927 31.96 354.507 33 354.067 34.04L351.187 41H340.147Z" fill="white"/>
</svg>
